<?xml version="1.0" encoding="utf-8"?>
<!-- Generator: Adobe Illustrator 26.3.1, SVG Export Plug-In . SVG Version: 6.00 Build 0)  -->
<svg version="1.1" id="Calque_1" xmlns="http://www.w3.org/2000/svg" xmlns:xlink="http://www.w3.org/1999/xlink" x="0px" y="0px"
	 viewBox="0 0 237.5 207.3" style="enable-background:new 0 0 237.5 207.3;" xml:space="preserve">
<style type="text/css">
	.st0{fill:#5F41AA;}
	.st1{opacity:0.25;fill:url(#Path-2_00000018956035128070400270000015948667803978074300_);enable-background:new    ;}
	.st2{opacity:0.25;fill:url(#Path-3_00000047022362952233691710000012367649106344631688_);enable-background:new    ;}
	.st3{opacity:0.46;fill:url(#Path-4_00000121983820043535258240000011481624266544751516_);enable-background:new    ;}
	.st4{fill:#68E1FD;}
	.st5{fill:#974C26;}
	.st6{fill:#999A1C;}
	.st7{fill:#A1482D;}
	.st8{fill:#F47B56;}
	.st9{fill:#FFFFFF;}
	.st10{fill:#AB643C;}
	.st11{opacity:0.32;fill:url(#Path-8_00000122683890300109390360000012593733467340655795_);enable-background:new    ;}
	.st12{fill:#E2AC00;}
	.st13{fill:#F2F2F2;}
	.st14{fill:#FF8F6F;}
	.st15{fill:#003B94;}
	.st16{fill:#3E2928;}
	.st17{fill:#FFB5A9;}
	.st18{fill:#007F68;}
	.st19{opacity:0.25;fill:url(#SVGID_1_);enable-background:new    ;}
</style>
<g id="Layer_2">
	<g id="Layer_1-2">
		<g id="Page-1">
			<g id="Group-4">
				<g id="mention_isometric-2">
					<g id="mention_isometric">
						<g>
							<path class="st0" d="M224.5,121.7L108.7,54.5c-1.7-1-4.2-0.3-5.9,0.7L27.3,98.8v46.5l78.3,46.3c4.5,2.5,10,2.5,14.5,0
								l105.1-60C228.7,129.4,228,123.7,224.5,121.7z"/>
						</g>
						
							<linearGradient id="Path-2_00000140004927723397881480000009980758155410458758_" gradientUnits="userSpaceOnUse" x1="-348.6196" y1="533.2938" x2="-348.8195" y2="533.1038" gradientTransform="matrix(52.93 0 0 -35.76 18581.6699 19186.8457)">
							<stop  offset="0" style="stop-color:#7F3500"/>
							<stop  offset="1" style="stop-color:#231F20;stop-opacity:0"/>
						</linearGradient>
						
							<path id="Path-2" style="opacity:0.25;fill:url(#Path-2_00000140004927723397881480000009980758155410458758_);enable-background:new    ;" d="
							M114.7,102.5l-21.8,12.4c0,0,33.5,20.5,40.4,23.3l12.5-18"/>
						
							<linearGradient id="Path-3_00000042008505468041251180000006949241085489895088_" gradientUnits="userSpaceOnUse" x1="-347.205" y1="519.2679" x2="-347.725" y2="518.928" gradientTransform="matrix(43.55 0 0 -25.69 15219.7197 13497.4141)">
							<stop  offset="3.000000e-02" style="stop-color:#7F3500"/>
							<stop  offset="1" style="stop-color:#231F20;stop-opacity:0"/>
						</linearGradient>
						
							<path id="Path-3" style="opacity:0.25;fill:url(#Path-3_00000042008505468041251180000006949241085489895088_);enable-background:new    ;" d="
							M107.2,162.1l-21.8-12.4l-21.7,12.4c0,0,11.3,6.9,22.2,13.3C92.7,170.5,99.6,165.6,107.2,162.1z"/>
						
							<linearGradient id="Path-4_00000023249231614185417420000006790654989630424980_" gradientUnits="userSpaceOnUse" x1="-342.3611" y1="497.7097" x2="-342.951" y2="497.2697" gradientTransform="matrix(26.11 0 0 -17.98 9006.2402 9038.332)">
							<stop  offset="0" style="stop-color:#843C09;stop-opacity:0.85"/>
							<stop  offset="1" style="stop-color:#231F20;stop-opacity:0"/>
						</linearGradient>
						
							<path id="Path-4" style="opacity:0.46;fill:url(#Path-4_00000023249231614185417420000006790654989630424980_);enable-background:new    ;" d="
							M60.2,85.6l-13.8,7.9c0,0,1.2,7.2,8,10.1L72.5,92"/>
						<ellipse id="Oval" class="st4" cx="67" cy="87.6" rx="8.3" ry="5.9"/>
						<ellipse id="Oval-2" class="st5" cx="67" cy="84.1" rx="6.2" ry="2.6"/>
						<path id="Shape" class="st6" d="M66.8,79.8c0-1.2,0-2.3-0.1-3.4l-0.1-0.9l-0.1-0.6c0-0.2,0-0.4-0.1-0.6l-0.1-0.7
							c-0.7-3.9-2.2-7.6-4.4-10.9c-0.8,2-1.3,4.2-1.2,6.4c0,0.7,0.1,1.3,0.1,1.9v0.4c0,0.3,0.1,0.6,0.2,0.9c0.3,1.2,0.6,2.3,1,3.5
							c0.4,1,0.8,2,1.3,3c0.6,1.1,1.2,2.2,1.8,3.2c0.5,0.8,1,1.5,1.5,2.2C66.7,82.7,66.8,81.3,66.8,79.8z M63.5,66.9
							c0-0.1,0-0.3,0-0.5c0.2,0.2,0.3,0.3,0.5,0.5C63.8,67,63.6,67,63.5,66.9L63.5,66.9z"/>
						<path id="Shape-2" class="st6" d="M68.9,80.8c0.6-1,1.2-2,1.8-3c0.2-0.3,0.3-0.5,0.4-0.8l0.3-0.5l0.2-0.6
							c0.1-0.2,0.2-0.4,0.3-0.7c1.5-3.7,2.3-7.6,2.1-11.6c-1.8,1.2-3.3,2.8-4.5,4.7c-0.3,0.5-0.7,1.1-0.9,1.7l-0.1,0.2v0.1l-0.4,0.9
							c-0.4,1.1-0.7,2.3-1,3.4c-0.2,1.1-0.4,2.2-0.5,3.3c-0.1,1.2-0.2,2.4-0.2,3.7c0,1,0,1.8,0.1,2.7C67.3,83.1,68.1,82,68.9,80.8z
							 M73.2,68.1c0.1-0.1,0.2-0.3,0.2-0.4c0,0.2,0.1,0.4,0.1,0.7C73.4,68.3,73.3,68.2,73.2,68.1z"/>
						<path id="Shape-3" class="st6" d="M68.9,83.6c0.7-0.3,1.3-0.7,1.9-1.1l0.5-0.3l0.3-0.2l0.3-0.2l0.4-0.3c2-1.5,3.7-3.4,4.9-5.5
							c-1.4,0.1-2.7,0.5-3.9,1.1c-0.3,0.2-0.7,0.4-1,0.6l-0.2,0.1l-0.5,0.4c-0.6,0.5-1.2,1-1.7,1.5c-0.5,0.5-0.9,1-1.3,1.6
							c-0.5,0.7-0.9,1.3-1.3,1.9c-0.3,0.5-0.6,1-0.8,1.5C67.2,84.4,68.1,84,68.9,83.6L68.9,83.6z M75.2,78.2c0.1,0,0.2-0.1,0.2-0.1
							c0,0.1-0.1,0.3-0.2,0.4C75.3,78.3,75.3,78.3,75.2,78.2L75.2,78.2z"/>
						<path id="Shape-4" class="st6" d="M66.8,79.8c0-1.2,0-2.3-0.1-3.4l-0.1-0.9l-0.1-0.6c0-0.2,0-0.4-0.1-0.6l-0.1-0.7
							c-0.7-3.9-2.2-7.6-4.4-10.9c-0.8,2-1.3,4.2-1.2,6.4c0,0.7,0.1,1.3,0.1,1.9v0.4c0,0.3,0.1,0.6,0.2,0.9c0.3,1.2,0.6,2.3,1,3.5
							c0.4,1,0.8,2,1.3,3c0.6,1.1,1.2,2.2,1.8,3.2c0.5,0.8,1,1.5,1.5,2.2C66.7,82.7,66.8,81.3,66.8,79.8z M63.5,66.9
							c0-0.1,0-0.3,0-0.5c0.2,0.2,0.3,0.3,0.5,0.5C63.8,67,63.6,67,63.5,66.9L63.5,66.9z"/>
						<path id="Shape-5" class="st6" d="M68.9,80.8c0.6-1,1.2-2,1.8-3c0.2-0.3,0.3-0.5,0.4-0.8l0.3-0.5l0.2-0.6
							c0.1-0.2,0.2-0.4,0.3-0.7c1.5-3.7,2.3-7.6,2.1-11.6c-1.8,1.2-3.3,2.8-4.5,4.7c-0.3,0.5-0.7,1.1-0.9,1.7l-0.1,0.2v0.1l-0.4,0.9
							c-0.4,1.1-0.7,2.3-1,3.4c-0.2,1.1-0.4,2.2-0.5,3.3c-0.1,1.2-0.2,2.4-0.2,3.7c0,1,0,1.8,0.1,2.7C67.3,83.1,68.1,82,68.9,80.8z
							 M73.2,68.1c0.1-0.1,0.2-0.3,0.2-0.4c0,0.2,0.1,0.4,0.1,0.7C73.4,68.3,73.3,68.2,73.2,68.1z"/>
						<path id="Shape-6" class="st6" d="M68.9,83.6c0.7-0.3,1.3-0.7,1.9-1.1l0.5-0.3l0.3-0.2l0.3-0.2l0.4-0.3c2-1.5,3.7-3.4,4.9-5.5
							c-1.4,0.1-2.7,0.5-3.9,1.1c-0.3,0.2-0.7,0.4-1,0.6l-0.2,0.1l-0.5,0.4c-0.6,0.5-1.2,1-1.7,1.5c-0.5,0.5-0.9,1-1.3,1.6
							c-0.5,0.7-0.9,1.3-1.3,1.9c-0.3,0.5-0.6,1-0.8,1.5C67.2,84.4,68.1,84,68.9,83.6L68.9,83.6z M75.2,78.2c0.1,0,0.2-0.1,0.2-0.1
							c0,0.1-0.1,0.3-0.2,0.4C75.3,78.3,75.3,78.3,75.2,78.2L75.2,78.2z"/>
						<path id="Path-5" class="st7" d="M123.3,97.7l-12,5.8c-0.9,0.4-1.6,1.3-1.6,2.4c0,1,0.5,2,1.4,2.5l28.6,16.7
							c1.3,0.7,2.9,0.4,3.7-0.9l6.9-10.8"/>
						<path id="Path-6" class="st8" d="M188.8,69.8L92.8,14.4c-2.1-1.2-4.7-0.5-5.9,1.6c-0.4,0.7-0.6,1.4-0.6,2.2v57.6
							c0,1.3,0.7,2.4,1.8,3.1l102.4,59.1c1.1,0.6,2.5,0.3,3.2-0.8c0.2-0.4,0.3-0.8,0.3-1.2V78.6C194,75,192,71.6,188.8,69.8z"/>
						<path id="Path-7" class="st9" d="M92.8,18.8L186,72.4c2,1.2,3.3,3.3,3.3,5.7v43.2c0,1.3-1.1,2.3-2.4,2.3c0,0,0,0,0,0
							c-0.4,0-0.8-0.1-1.1-0.3l-95-54.4c-0.7-0.4-1.2-1.2-1.2-2V20.7c0-1.2,1-2.2,2.2-2.2C92,18.5,92.4,18.6,92.8,18.8L92.8,18.8z"
							/>
						
							<ellipse id="Oval-3" transform="matrix(0.982 -0.1891 0.1891 0.982 -16.1404 26.6432)" class="st10" cx="131.6" cy="97.9" rx="2" ry="2.3"/>
						
							<linearGradient id="Path-8_00000126306083925129632410000000694714943819313595_" gradientUnits="userSpaceOnUse" x1="-349.5938" y1="531.9751" x2="-349.7338" y2="532.0352" gradientTransform="matrix(64.69 0 0 -34.67 22784.8301 18533.4551)">
							<stop  offset="0" style="stop-color:#FFFFFF;stop-opacity:0"/>
							<stop  offset="0.99" style="stop-color:#DC841E"/>
						</linearGradient>
						
							<path id="Path-8" style="opacity:0.32;fill:url(#Path-8_00000126306083925129632410000000694714943819313595_);enable-background:new    ;" d="
							M117.8,77.3l43.3,26l21.4-12.4l-38.2-22.2"/>
						<path id="Path-9" class="st12" d="M171.3,72.2l-46.8-28.5c-0.8-0.4-1.8-0.2-2.2,0.6c0,0,0,0,0,0c-0.2,0.3-0.2,0.6-0.2,0.9
							v16.3c0,0.6,0.3,1.2,0.8,1.5l46.8,27.9c0.8,0.4,1.8,0.2,2.2-0.6c0.1-0.2,0.2-0.5,0.2-0.8l0.2-15.2
							C172.4,73.4,172,72.6,171.3,72.2L171.3,72.2z"/>
						<path id="Path-10" class="st9" d="M160.1,80.5c1.7,2.3,4.6,3,6.6,1.5s2.2-4.7,0.5-7s-4.6-3-6.6-1.5S158.5,78.2,160.1,80.5z"/>
						<path id="Path-11" class="st13" d="M155.5,69.3l-19.1-11.5c-0.4-0.2-0.8,0-0.9,0.4c0,0,0,0,0,0c-0.1,0.3,0,0.7,0.2,0.9
							l19.1,11.5c0.4,0.2,0.8,0,1-0.4c0,0,0,0,0,0C155.9,69.8,155.8,69.4,155.5,69.3z"/>
						<path id="Path-12" class="st13" d="M154.8,73.9l-26.3-15.8c-0.3-0.1-0.7,0-0.9,0.3c-0.2,0.3-0.1,0.7,0.2,0.9L154,75.2
							c0.4,0.2,0.8,0.1,1-0.3C155.3,74.5,155.1,74,154.8,73.9L154.8,73.9z"/>
						<path id="Path-13" class="st8" d="M162,75.3l-46.8-28.5c-0.8-0.4-1.8-0.2-2.2,0.6c0,0,0,0,0,0c-0.2,0.3-0.2,0.6-0.2,0.9v16.2
							c0,0.6,0.3,1.2,0.8,1.5l46.8,27.9c0.8,0.4,1.7,0.2,2.2-0.6c0,0,0,0,0,0c0.2-0.3,0.2-0.6,0.2-0.9l0.2-15.2
							C163.1,76.4,162.7,75.7,162,75.3L162,75.3z"/>
						<path id="Path-14" class="st9" d="M150.8,83.7c1.7,2.3,4.6,3,6.6,1.5s2.2-4.7,0.5-7s-4.6-3-6.6-1.5S149.1,81.3,150.8,83.7z"/>
						<path id="Path-15" class="st13" d="M146.2,72.4l-19.1-11.5c-0.3-0.2-0.8-0.1-1,0.2c0,0,0,0,0,0c-0.2,0.3-0.1,0.8,0.2,1
							l19.1,11.5c0.3,0.2,0.7,0,0.9-0.3C146.6,73.1,146.5,72.6,146.2,72.4L146.2,72.4L146.2,72.4z"/>
						<path id="Path-16" class="st13" d="M145.4,77.1l-26.3-15.9c-0.3-0.2-0.7,0-0.9,0.3c-0.2,0.3-0.1,0.8,0.2,1l26.3,15.8
							c0.4,0.1,0.8,0,1-0.4C145.7,77.6,145.6,77.2,145.4,77.1L145.4,77.1z"/>
						<path id="Path-17" class="st4" d="M150.3,77.2l-46.8-28.5c-0.8-0.5-1.7-0.2-2.2,0.6c0,0,0,0,0,0c-0.2,0.3-0.2,0.6-0.2,0.9
							v16.2c0,0.6,0.3,1.1,0.8,1.5l46.8,28c0.8,0.4,1.7,0.2,2.2-0.6c0,0,0,0,0,0c0.2-0.3,0.2-0.6,0.2-0.9l0.2-15.2
							C151.4,78.5,151,77.7,150.3,77.2L150.3,77.2z"/>
						<path id="Path-18" class="st4" d="M150.3,77.2l-46.8-28.5c-0.8-0.5-1.7-0.2-2.2,0.6c0,0,0,0,0,0c-0.2,0.3-0.2,0.6-0.2,0.9
							v16.2c0,0.6,0.3,1.1,0.8,1.5l46.8,28c0.8,0.4,1.7,0.2,2.2-0.6c0,0,0,0,0,0c0.2-0.3,0.2-0.6,0.2-0.9l0.2-15.2
							C151.4,78.5,151,77.7,150.3,77.2L150.3,77.2z"/>
						<path id="Path-19" class="st9" d="M139,85.6c1.7,2.3,4.6,3,6.6,1.5s2.2-4.7,0.5-7s-4.6-3-6.6-1.5S137.4,83.2,139,85.6z"/>
						<path id="Path-20" class="st13" d="M134.5,74.3l-19.1-11.5c-0.4-0.2-0.8,0-1,0.3c0,0,0,0,0,0.1c-0.1,0.3,0,0.7,0.2,0.9
							l19.1,11.5c0.3,0.2,0.7,0,0.9-0.3C134.8,75,134.7,74.5,134.5,74.3L134.5,74.3L134.5,74.3z"/>
						<path id="Path-21" class="st13" d="M133.7,79l-26.3-15.8c-0.4-0.2-0.8,0-1,0.3c0,0,0,0,0,0.1c-0.1,0.3,0,0.7,0.2,0.9
							l26.4,15.8c0.4,0.2,0.8,0,1-0.3c0,0,0,0,0,0C134.1,79.6,134,79.2,133.7,79L133.7,79z"/>
						<path id="Path-22" class="st14" d="M88.8,75.6c-3,2.6-5.3,6-6.6,9.7c-2.3,6.4,3.4,16.9,3.4,16.9l9.1-7.2"/>
						<path id="Path-23" class="st15" d="M87.9,160.6l-2.5-1.4l0.7-3.5c0,0,3.7,0.4,4,1.6"/>
						<path id="Path-24" class="st8" d="M88.8,160.6c0.6-0.3,1.1-0.6,1.7-0.9c1.4-0.8,3.5-1.6,4.3-3.1c0.4-0.6,0.3-1.4-0.1-1.9
							c-1.3-1.6-4.1,1-5.6-0.7c-0.3-0.3-0.4-5.7-0.4-5.7l-5.5,1.5c0,0-0.9,10.9-0.8,11.5s2,1.3,2,1.3c0.6-0.1,1.1-0.3,1.6-0.6
							c0.6-0.4,0-5.5,0.8-4.8s1,3.5,1,3.5C88.1,160.6,88.4,160.6,88.8,160.6L88.8,160.6z"/>
						<path id="Path-25" class="st15" d="M98.3,165.9l-2.5-1.3l0.6-3.5c0,0,3.7,0.4,4,1.6"/>
						<path id="Path-26" class="st8" d="M99.2,165.8c0.6-0.4,1.1-0.6,1.7-0.9c1.4-0.8,3.5-1.6,4.3-3c0.4-0.6,0.3-1.4-0.1-1.9
							c-1.3-1.6-4.1,1-5.5-0.7c-0.3-0.3-0.4-5.8-0.4-5.8l-5.5,1.5c0,0-0.9,10.9-0.8,11.6s2,1.3,2,1.3c0.6-0.1,1.1-0.3,1.6-0.6
							c0.6-0.4,0-5.5,0.8-4.8s1.1,3.5,1.1,3.5C98.6,165.9,98.9,165.9,99.2,165.8z"/>
						<path id="Path-27" class="st16" d="M80.5,130.6l-1.6,21.6c0,0,2.6,3.6,11.2,1.6l0.1-14.6"/>
						<path id="Path-28" class="st16" d="M90.4,134.8c-0.2,1.9,0,22.4,0,22.4s2.4,4.5,12.8,0l-0.2-17.4"/>
						<path id="Path-29" class="st16" d="M79.7,137.7c0.7,0.5,1-2,1.7-1.6c2.7,1.6,5.6,2.8,8.5,3.7h0.1c0.1-0.1,0.3-0.1,0.5,0
							c0.2,0.1,0.3,0.2,0.3,0.3c1.8,0.5,3.7,1,5.6,1.3c2.4,0.4,4.4-1.4,6.9-1.5c0-9.5,0-36.7-4-42.4l-12-4c-0.1,1-5.8,7.7-5.7,15.8
							c0,6.9-0.4,13.9-1.2,20.7C80.3,130.5,79.7,137.2,79.7,137.7z"/>
						<path id="Path-30" class="st14" d="M100.3,86.5l-1.1,10.9c0,0-9,0.4-12.8-2.3v-9.3"/>
						<path id="Path-31" class="st17" d="M111.7,79.3l-0.9,1.2c0.5-1,0.9-2.1,1.3-3.1c0.3-0.7-0.9-1-1.2-0.3l-0.1,0.4
							c0.1-0.4,0.2-0.8,0.3-1.2c0.1-0.3-0.1-0.6-0.4-0.7c-0.3-0.1-0.6,0.1-0.7,0.4l0,0l0,0c-0.2,1-0.6,2-0.9,3
							c0.2-0.9,0.3-1.8,0.4-2.6c0.1-0.8-1.1-0.7-1.2,0c-0.1,1-0.3,2-0.5,3c0-0.3,0-0.7-0.1-1c0-0.2-0.1-0.3-0.3-0.4
							c0-0.1-0.1-0.3-0.1-0.4c-0.1-0.3-0.4-0.4-0.7-0.4c-0.3,0-0.5,0.3-0.5,0.6l-0.1,4.5c-0.2,0.5-0.5,0.9-0.8,1.3
							c0.6,0.4,1.1,0.8,1.7,1.3c0.5,0.4,0.9,0.8,1.4,1.3c0.4-0.5,0.8-1,1.1-1.5l0.1-0.1c1.1-1.6,2.2-3.2,3.3-4.7
							C113.2,79.3,112.2,78.7,111.7,79.3z"/>
						<path id="Path-32" class="st14" d="M94.7,76.5c0,0,4.2,1.1,6,3.9c1.1,1.9,2,3.8,2.8,5.8l3.2-4.9c0,0,3.8,1.2,5.3,3
							c0,0-4.5,9.8-8.4,10.7s-8.1-5.8-8.1-5.8s-0.9,2.8-0.7-0.2"/>
						<path id="Path-33" class="st18" d="M97.3,87.1c-1.2-1-2.1-2.3-2.7-3.8c-0.5-1.7,0.1-3.2,0.7-4.9c0.7-1.6,1-3.3,1.1-5
							c0-1.7-0.1-3.3-0.3-5c0-0.1,0-0.1,0-0.2c-0.6-1.9-1.7-3.5-4-3.7c-5.9-0.5-6.2,6-6.2,8.7s0.3,4.5-1.6,5.6s-3.4,4-1.5,6.4
							s0.2,1.5-1.1,3.6s-0.9,4.7,1.6,5.7s14.5-0.8,15.6-1.9c0.4-0.4,0.6-1,0.6-1.6C99.3,89.4,98.5,88,97.3,87.1L97.3,87.1z"/>
						<path id="Shape-7" class="st8" d="M103.1,33.1c1,1.4,1.6,3.1,1.7,4.9c0.1,0.8-0.1,1.6-0.5,2.3c-0.4,0.4-1.1,0.6-1.6,0.3
							c-0.3-0.1-0.6-0.3-0.9-0.6c-0.2-0.2-0.4-0.4-0.6-0.7l-0.2-0.3c0,0.1-0.1,0.2-0.2,0.2c-0.2,0.1-0.3,0.2-0.5,0.2
							c-0.3,0.1-0.7,0-1-0.1c-0.7-0.3-1.3-0.8-1.7-1.5C97.3,37,97,36.2,97,35.3c-0.1-0.7,0.1-1.4,0.6-1.9c0.4-0.4,1-0.5,1.6-0.2
							c0.3,0.1,0.5,0.3,0.7,0.4c0.2,0.1,0.3,0.3,0.5,0.5l0.1,0.2v-0.6l1.3,0.5l0.1,3.6c0,0.3,0.1,0.5,0.2,0.7
							c0.1,0.2,0.3,0.4,0.5,0.5c0.6,0.2,0.9-0.3,0.9-1.6c-0.1-1.3-0.5-2.6-1.2-3.6c-0.7-1.1-1.7-2-2.8-2.4c-0.9-0.4-1.9-0.3-2.7,0.3
							c-0.8,0.8-1.1,1.9-1,3c0.1,1.4,0.5,2.7,1.3,3.9c0.6,1.1,1.6,2,2.8,2.6c0.4,0.2,0.8,0.3,1.3,0.2c0.3,0,0.6,0,0.8-0.2l0.3-0.1
							l0.8,1.5l-0.1,0.1c-0.1,0.1-0.2,0.1-0.4,0.2c-0.2,0.1-0.4,0.2-0.7,0.2c-0.3,0-0.6,0-0.8,0c-0.4,0-0.7-0.1-1.1-0.3
							c-1-0.4-1.9-1-2.6-1.8c-0.8-0.9-1.5-2-2-3.1c-0.5-1.1-0.8-2.3-0.8-3.5c-0.1-1,0.1-2,0.6-2.9c0.4-0.8,1-1.3,1.8-1.6
							c0.8-0.3,1.7-0.2,2.5,0.1C100.9,30.6,102.2,31.7,103.1,33.1L103.1,33.1z M100.3,37.6c0.2-0.3,0.3-0.6,0.3-1
							c0-0.4-0.1-0.8-0.3-1.2c-0.2-0.3-0.4-0.6-0.8-0.7c-0.3-0.1-0.6-0.1-0.8,0.1c-0.2,0.3-0.3,0.6-0.3,0.9c0,0.4,0.1,0.8,0.4,1.2
							c0.2,0.3,0.5,0.6,0.8,0.7C99.8,37.8,100.1,37.8,100.3,37.6"/>
						<path id="Shape-8" class="st8" d="M179.1,102.7c1,1.4,1.6,3.1,1.7,4.9c0.1,0.8-0.1,1.6-0.5,2.3c-0.4,0.4-1.1,0.5-1.6,0.3
							c-0.3-0.1-0.6-0.3-0.9-0.6c-0.2-0.2-0.4-0.5-0.6-0.7l-0.2-0.3c0,0.1-0.1,0.2-0.1,0.2c-0.2,0.1-0.3,0.2-0.5,0.2
							c-0.3,0.1-0.7,0-0.9-0.1c-0.7-0.3-1.3-0.8-1.7-1.5c-0.5-0.7-0.7-1.6-0.8-2.4c-0.1-0.7,0.1-1.4,0.6-1.9c0.4-0.4,1-0.5,1.6-0.2
							c0.3,0.1,0.5,0.2,0.7,0.4c0.2,0.1,0.3,0.3,0.5,0.5l0.1,0.2v-0.6l1.3,0.5l0.1,3.6c0,0.3,0.1,0.5,0.2,0.7
							c0.1,0.2,0.3,0.4,0.5,0.5c0.6,0.2,0.9-0.3,0.9-1.6c-0.1-1.3-0.5-2.6-1.2-3.6c-0.7-1.1-1.7-1.9-2.8-2.4
							c-0.9-0.5-1.9-0.3-2.7,0.3c-0.8,0.8-1.1,1.9-1,3c0.1,1.4,0.5,2.7,1.3,3.8c0.6,1.1,1.6,2,2.8,2.5c0.4,0.2,0.8,0.3,1.3,0.3
							c0.3,0,0.6,0,0.8-0.2l0.3-0.2l0.8,1.4l-0.1,0.1c-0.1,0.1-0.2,0.1-0.4,0.2c-0.2,0.1-0.4,0.2-0.6,0.2c-0.3,0-0.6,0-0.9,0
							c-0.4,0-0.7-0.1-1.1-0.3c-1-0.4-1.9-1.1-2.6-1.9c-0.8-0.9-1.5-2-2-3.1c-0.5-1.1-0.8-2.3-0.8-3.4c-0.1-1,0.1-2,0.6-2.9
							c0.4-0.8,1-1.3,1.8-1.6c0.8-0.3,1.7-0.2,2.5,0.1C177,100.1,178.2,101.2,179.1,102.7L179.1,102.7z M176.3,107.3
							c0.2-0.3,0.3-0.6,0.3-1c0-0.4-0.1-0.8-0.3-1.2c-0.2-0.3-0.4-0.6-0.8-0.7c-0.3-0.1-0.6-0.1-0.8,0.1c-0.2,0.3-0.3,0.6-0.3,0.9
							c0,0.4,0.1,0.8,0.4,1.2c0.2,0.3,0.5,0.6,0.8,0.7C175.8,107.5,176.1,107.4,176.3,107.3"/>
					</g>
				</g>
			</g>
		</g>
	</g>
</g>
<g>
	
		<linearGradient id="SVGID_1_" gradientUnits="userSpaceOnUse" x1="-347.168" y1="520.4468" x2="-347.688" y2="520.0968" gradientTransform="matrix(43.54 0 0 -26.33 15159.9199 13828.3535)">
		<stop  offset="3.000000e-02" style="stop-color:#7F3500"/>
		<stop  offset="1" style="stop-color:#231F20;stop-opacity:0"/>
	</linearGradient>
	<path class="st19" d="M50.9,130.1l-21.8-12.4l-1.8,1.1v23.5c1,0.6,2,1.2,3,1.8C37.2,139.2,43.3,133.6,50.9,130.1z"/>
</g>
</svg>
