<svg id="Calque_1" data-name="Calque 1" xmlns="http://www.w3.org/2000/svg" xmlns:xlink="http://www.w3.org/1999/xlink" viewBox="0 0 237.48 207.28"><defs><style>.cls-1{fill:#d2d2f7;}.cls-2{fill:#5b36a0;}.cls-13,.cls-21,.cls-3,.cls-4,.cls-5{isolation:isolate;}.cls-21,.cls-3,.cls-4{opacity:0.25;}.cls-3{fill:url(#Dégradé_sans_nom);}.cls-4{fill:url(#Dégradé_sans_nom_2);}.cls-5{opacity:0.46;fill:url(#Dégradé_sans_nom_3);}.cls-6{fill:#68e1fd;}.cls-7{fill:#974c26;}.cls-8{fill:#999a1c;}.cls-9{fill:#a1482d;}.cls-10{fill:#f47b56;}.cls-11{fill:#fff;}.cls-12{fill:#ab643c;}.cls-13{opacity:0.32;fill:url(#Dégradé_sans_nom_4);}.cls-14{fill:#e2ac00;}.cls-15{fill:#f2f2f2;}.cls-16{fill:#ff8f6f;}.cls-17{fill:#003b94;}.cls-18{fill:#3e2928;}.cls-19{fill:#ffb5a9;}.cls-20{fill:#007f68;}.cls-21{fill:url(#Dégradé_sans_nom_5);}.cls-22,.cls-23{fill-rule:evenodd;}.cls-23{fill:#ff9271;}.cls-24{fill:#df5c34;}</style><linearGradient id="Dégradé_sans_nom" x1="-173.81" y1="-17.66" x2="-174.01" y2="-17.47" gradientTransform="translate(9338.13 733.78) scale(52.93 35.76)" gradientUnits="userSpaceOnUse"><stop offset="0" stop-color="#7f3500"/><stop offset="1" stop-color="#231f20" stop-opacity="0"/></linearGradient><linearGradient id="Dégradé_sans_nom_2" x1="-173.08" y1="-7.26" x2="-173.6" y2="-6.92" gradientTransform="translate(7645.82 329.99) scale(43.55 25.69)" gradientUnits="userSpaceOnUse"><stop offset="0.03" stop-color="#7f3500"/><stop offset="1" stop-color="#231f20" stop-opacity="0"/></linearGradient><linearGradient id="Dégradé_sans_nom_3" x1="-170.82" y1="8.78" x2="-171.41" y2="9.22" gradientTransform="translate(4536.66 -82.19) scale(26.11 17.98)" gradientUnits="userSpaceOnUse"><stop offset="0" stop-color="#843c09" stop-opacity="0.85"/><stop offset="1" stop-color="#231f20" stop-opacity="0"/></linearGradient><linearGradient id="Dégradé_sans_nom_4" x1="-174.2" y1="-16.63" x2="-174.34" y2="-16.69" gradientTransform="translate(11448.01 652.52) scale(64.69 34.67)" gradientUnits="userSpaceOnUse"><stop offset="0" stop-color="#fff" stop-opacity="0"/><stop offset="0.99" stop-color="#dc841e"/></linearGradient><linearGradient id="Dégradé_sans_nom_5" x1="-173.04" y1="-8.12" x2="-173.56" y2="-7.77" gradientTransform="translate(7587.8 325) scale(43.54 26.33)" xlink:href="#Dégradé_sans_nom_2"/></defs><path id="Path-Copy" class="cls-1" d="M115.55,205.38,5.24,140.2c-3.52-2-6.53-5.21-3.11-7.33L112.85,69.08c1.65-1,4.18-1.7,5.87-.72L234.5,135.55c3.52,2,4.15,7.72.65,9.78l-105.06,60a14.67,14.67,0,0,1-14.54,0Z"/><g id="Layer_2" data-name="Layer 2"><g id="Layer_1-2" data-name="Layer 1-2"><g id="Page-1"><g id="Group-4"><g id="mention_isometric-2" data-name="mention isometric-2"><g id="mention_isometric" data-name="mention isometric"><path id="Path" class="cls-2" d="M114.92,177.69,4.61,112.51c-3.52-2-6.53-5.21-3.11-7.33L112.22,41.39c1.65-1,4.18-1.7,5.87-.72l115.78,67.19c3.52,2,4.15,7.72.65,9.78l-105.06,60A14.7,14.7,0,0,1,114.92,177.69Z"/><path id="Path-2" class="cls-3" d="M124,88.69,102.25,101.1s33.53,20.46,40.39,23.34l12.54-18"/><path id="Path-3" class="cls-4" d="M116.5,148.26,94.73,135.87,73,148.29s11.34,6.92,22.18,13.27C102,156.69,108.9,151.77,116.5,148.26Z"/><path id="Path-4" class="cls-5" d="M69.59,71.73,55.78,79.61s1.17,7.22,8,10.11L81.89,78.14"/><ellipse id="Oval" class="cls-6" cx="76.35" cy="73.75" rx="8.33" ry="5.86"/><ellipse id="Oval-2" class="cls-7" cx="76.34" cy="70.29" rx="6.24" ry="2.55"/><path id="Shape" class="cls-8" d="M76.12,66A30.61,30.61,0,0,0,76,62.55l-.09-.9-.06-.58a3,3,0,0,0-.09-.6l-.12-.7a27.47,27.47,0,0,0-4.45-10.89,16.15,16.15,0,0,0-1.25,6.37c0,.65.06,1.29.11,1.9v.37a4.64,4.64,0,0,0,.17.93,27.74,27.74,0,0,0,1,3.45,20.69,20.69,0,0,0,1.35,3c.57,1.09,1.18,2.15,1.85,3.19.51.81,1,1.53,1.49,2.22A41.33,41.33,0,0,0,76.12,66ZM72.84,53.09a1.14,1.14,0,0,0,0-.45c.16.16.32.33.47.5a1.24,1.24,0,0,0-.47,0Z"/><path id="Shape-2" class="cls-8" d="M78.26,66.92a30.06,30.06,0,0,0,1.75-3c.15-.27.28-.53.42-.8l.26-.53.25-.55c.09-.22.19-.44.28-.65a27.52,27.52,0,0,0,2.14-11.57,15.85,15.85,0,0,0-4.5,4.69c-.34.54-.65,1.09-.94,1.65l-.13.24v.1l-.36.87a27.11,27.11,0,0,0-1,3.44,22.45,22.45,0,0,0-.5,3.27c-.11,1.22-.17,2.44-.17,3.67,0,1,0,1.83.06,2.67C76.62,69.3,77.48,68.13,78.26,66.92ZM82.5,54.26a.93.93,0,0,0,.22-.4,4.4,4.4,0,0,0,.12.65A1.07,1.07,0,0,0,82.5,54.26Z"/><path id="Shape-3" class="cls-8" d="M78.21,69.79c.65-.33,1.29-.67,1.93-1.05l.49-.29.31-.2.31-.22.36-.26a17.36,17.36,0,0,0,4.89-5.55,10.25,10.25,0,0,0-3.94,1.08,9.74,9.74,0,0,0-1,.59l-.15.09-.48.36a15,15,0,0,0-1.67,1.52,14.57,14.57,0,0,0-1.32,1.6c-.46.65-.88,1.29-1.29,1.93a16.88,16.88,0,0,0-.83,1.47c.75-.31,1.58-.67,2.39-1.07Zm6.38-5.47a.77.77,0,0,0,.25-.14,1.05,1.05,0,0,1-.16.4.54.54,0,0,0-.09-.25Z"/><path id="Shape-4" class="cls-8" d="M76.12,66A30.61,30.61,0,0,0,76,62.55l-.09-.9-.06-.58a3,3,0,0,0-.09-.6l-.12-.7a27.47,27.47,0,0,0-4.45-10.89,16.15,16.15,0,0,0-1.25,6.37c0,.65.06,1.29.11,1.9v.37a4.64,4.64,0,0,0,.17.93,27.74,27.74,0,0,0,1,3.45,20.69,20.69,0,0,0,1.35,3c.57,1.09,1.18,2.15,1.85,3.19.51.81,1,1.53,1.49,2.22A41.33,41.33,0,0,0,76.12,66ZM72.84,53.09a1.14,1.14,0,0,0,0-.45c.16.16.32.33.47.5a1.24,1.24,0,0,0-.47,0Z"/><path id="Shape-5" class="cls-8" d="M78.26,66.92a30.06,30.06,0,0,0,1.75-3c.15-.27.28-.53.42-.8l.26-.53.25-.55c.09-.22.19-.44.28-.65a27.52,27.52,0,0,0,2.14-11.57,15.85,15.85,0,0,0-4.5,4.69c-.34.54-.65,1.09-.94,1.65l-.13.24v.1l-.36.87a27.11,27.11,0,0,0-1,3.44,22.45,22.45,0,0,0-.5,3.27c-.11,1.22-.17,2.44-.17,3.67,0,1,0,1.83.06,2.67C76.62,69.3,77.48,68.13,78.26,66.92ZM82.5,54.26a.93.93,0,0,0,.22-.4,4.4,4.4,0,0,0,.12.65A1.07,1.07,0,0,0,82.5,54.26Z"/><path id="Shape-6" class="cls-8" d="M78.21,69.79c.65-.33,1.29-.67,1.93-1.05l.49-.29.31-.2.31-.22.36-.26a17.36,17.36,0,0,0,4.89-5.55,10.25,10.25,0,0,0-3.94,1.08,9.74,9.74,0,0,0-1,.59l-.15.09-.48.36a15,15,0,0,0-1.67,1.52,14.57,14.57,0,0,0-1.32,1.6c-.46.65-.88,1.29-1.29,1.93a16.88,16.88,0,0,0-.83,1.47c.75-.31,1.58-.67,2.39-1.07Zm6.38-5.47a.77.77,0,0,0,.25-.14,1.05,1.05,0,0,1-.16.4.54.54,0,0,0-.09-.25Z"/><path id="Path-5" class="cls-9" d="M132.66,83.84l-12,5.79A2.74,2.74,0,0,0,119.05,92a2.8,2.8,0,0,0,1.37,2.51L149,111.18a2.77,2.77,0,0,0,3.73-.9l6.94-10.79"/><path id="Path-6" class="cls-10" d="M198.19,55.92,102.12.58a4.33,4.33,0,0,0-6.49,3.75V61.91A3.62,3.62,0,0,0,97.43,65l102.42,59.1a2.31,2.31,0,0,0,3.16-.82,2.35,2.35,0,0,0,.32-1.18V64.78A10.21,10.21,0,0,0,198.19,55.92Z"/><path id="Path-7" class="cls-11" d="M102.13,4.93,195.3,58.52a6.52,6.52,0,0,1,3.27,5.66v43.16a2.35,2.35,0,0,1-2.41,2.31,2.48,2.48,0,0,1-1.12-.31L100,54.9a2.33,2.33,0,0,1-1.18-2V6.83a2.19,2.19,0,0,1,3.28-1.9Z"/><ellipse id="Oval-3" class="cls-12" cx="140.9" cy="84.06" rx="2.03" ry="2.32" transform="translate(-13.35 28.16) rotate(-10.9)"/><path id="Path-8" class="cls-13" d="M127.17,63.48l43.3,26,21.39-12.43L153.64,54.82"/><path id="Path-9" class="cls-14" d="M180.68,58.31,133.87,29.77a1.61,1.61,0,0,0-2.21.59,1.64,1.64,0,0,0-.22.87V47.49a1.69,1.69,0,0,0,.81,1.47l46.81,27.93a1.61,1.61,0,0,0,2.41-1.4l.24-15.16a2.27,2.27,0,0,0-1-2Z"/><path id="Path-10" class="cls-11" d="M169.48,66.67c1.68,2.35,4.63,3,6.58,1.48s2.19-4.68.51-7-4.63-3-6.59-1.47S167.8,64.33,169.48,66.67Z"/><path id="Path-11" class="cls-15" d="M164.89,55.41l-19.1-11.5a.72.72,0,0,0-.95.39.73.73,0,0,0,.22.86l19.09,11.49a.74.74,0,0,0,1-.4A.73.73,0,0,0,164.89,55.41Z"/><path id="Path-12" class="cls-15" d="M164.1,60.08,137.78,44.24a.72.72,0,0,0-.87.33.72.72,0,0,0,.17.91l26.29,15.85A.75.75,0,0,0,164.1,60Z"/><path id="Path-13" class="cls-10" d="M171.34,61.46,124.55,32.93a1.61,1.61,0,0,0-2.21.59,1.64,1.64,0,0,0-.22.87V50.64a1.69,1.69,0,0,0,.81,1.47L169.74,80a1.6,1.6,0,0,0,2.19-.57,1.57,1.57,0,0,0,.22-.87l.25-15.15a2.25,2.25,0,0,0-1.06-2Z"/><path id="Path-14" class="cls-11" d="M160.14,69.83c1.68,2.34,4.63,3,6.58,1.47s2.19-4.68.51-7-4.63-3-6.59-1.47S158.46,67.48,160.14,69.83Z"/><path id="Path-15" class="cls-15" d="M155.54,58.56l-19.1-11.49a.71.71,0,0,0-1,.29.73.73,0,0,0,.24,1l19.09,11.5a.73.73,0,0,0,.93-.29.72.72,0,0,0-.19-1h0Z"/><path id="Path-16" class="cls-15" d="M154.75,63.26,128.44,47.39a.71.71,0,0,0-.93.29.74.74,0,0,0,.2,1L154,64.48a.75.75,0,0,0,.73-1.29Z"/><path id="Path-17" class="cls-6" d="M159.6,63.37,112.8,34.85a1.6,1.6,0,0,0-2.2.56,1.66,1.66,0,0,0-.23.9V52.56a1.72,1.72,0,0,0,.82,1.46L158,82a1.6,1.6,0,0,0,2.2-.58,1.54,1.54,0,0,0,.22-.86l.24-15.15a2.26,2.26,0,0,0-1-2Z"/><path id="Path-18" class="cls-6" d="M159.6,63.37,112.8,34.85a1.6,1.6,0,0,0-2.2.56,1.66,1.66,0,0,0-.23.9V52.56a1.72,1.72,0,0,0,.82,1.46L158,82a1.6,1.6,0,0,0,2.2-.58,1.54,1.54,0,0,0,.22-.86l.24-15.15a2.26,2.26,0,0,0-1-2Z"/><path id="Path-19" class="cls-11" d="M148.39,71.74c1.68,2.35,4.63,3,6.59,1.47s2.18-4.67.5-7-4.63-3-6.59-1.47S146.73,69.39,148.39,71.74Z"/><path id="Path-20" class="cls-15" d="M143.8,60.47,124.7,49a.72.72,0,0,0-1,.39.73.73,0,0,0,.22.86l19.09,11.49a.71.71,0,0,0,.93-.29.72.72,0,0,0-.19-1h0Z"/><path id="Path-21" class="cls-15" d="M143,65.15,116.69,49.31a.72.72,0,0,0-1,.39.73.73,0,0,0,.22.86L142.27,66.4a.73.73,0,0,0,1-.36.72.72,0,0,0-.23-.89Z"/><path id="Path-22" class="cls-16" d="M98.18,61.78a22.75,22.75,0,0,0-6.63,9.72C89.22,77.93,95,88.44,95,88.44l9.06-7.17"/><path id="Path-23" class="cls-17" d="M97.2,146.8l-2.46-1.35.65-3.52s3.66.35,4,1.65"/><path id="Path-24" class="cls-10" d="M98.1,146.75c.56-.34,1.13-.64,1.71-.94,1.42-.78,3.47-1.59,4.35-3.05a1.67,1.67,0,0,0-.12-1.92c-1.29-1.56-4.1,1-5.55-.73-.28-.34-.41-5.74-.41-5.74l-5.48,1.47s-.93,10.87-.83,11.54,2,1.29,2,1.29a4.76,4.76,0,0,0,1.58-.65c.58-.41,0-5.51.79-4.8s1,3.51,1,3.51a4,4,0,0,0,.91,0Z"/><path id="Path-25" class="cls-17" d="M107.67,152.06l-2.46-1.34.64-3.51s3.66.35,4,1.64"/><path id="Path-26" class="cls-10" d="M108.59,152c.56-.35,1.14-.65,1.71-.95,1.42-.78,3.47-1.58,4.35-3a1.69,1.69,0,0,0-.12-1.93c-1.29-1.56-4.1,1-5.54-.72-.29-.34-.42-5.75-.42-5.75l-5.48,1.48s-.94,10.91-.83,11.55,2,1.28,2,1.28a4.74,4.74,0,0,0,1.58-.64c.57-.42,0-5.52.78-4.8s1.06,3.5,1.06,3.5A4,4,0,0,0,108.59,152Z"/><path id="Path-27" class="cls-18" d="M89.81,116.73,88.2,138.31s2.57,3.55,11.2,1.58l.08-14.55"/><path id="Path-28" class="cls-18" d="M99.77,121c-.18,1.86,0,22.36,0,22.36s2.39,4.47,12.78,0l-.15-17.42"/><path id="Path-29" class="cls-18" d="M89,123.86c.7.49,1-2,1.69-1.6A41.76,41.76,0,0,0,99.22,126h.06a.61.61,0,0,1,.46,0,.55.55,0,0,1,.33.32,47.07,47.07,0,0,0,5.59,1.28c2.43.39,4.43-1.4,6.92-1.53,0-9.53,0-36.65-4-42.44l-12-4c-.06,1-5.83,7.68-5.69,15.83a182.07,182.07,0,0,1-1.24,20.74C89.6,116.64,89,123.34,89,123.86Z"/><path id="Path-30" class="cls-16" d="M109.67,72.66l-1.1,10.93s-9,.36-12.82-2.3V72"/><path id="Path-31" class="cls-19" d="M121.07,65.46l-.92,1.25a28.08,28.08,0,0,0,1.29-3.12c.26-.72-.91-1-1.16-.29l-.14.38c.11-.39.22-.78.32-1.17a.6.6,0,1,0-1.17-.29h0a28.77,28.77,0,0,1-.91,3,19.63,19.63,0,0,0,.43-2.64c.08-.76-1.13-.73-1.2,0a19.27,19.27,0,0,1-.54,3,5.55,5.55,0,0,0-.09-1,.58.58,0,0,0-.26-.43,1.6,1.6,0,0,0-.11-.4.62.62,0,0,0-.67-.4.6.6,0,0,0-.51.58l-.08,4.5a4.94,4.94,0,0,1-.84,1.29A17.18,17.18,0,0,1,116.18,71a16.59,16.59,0,0,1,1.37,1.28c.38-.48.75-1,1.11-1.46l.12-.13q1.6-2.4,3.32-4.68C122.57,65.44,121.52,64.85,121.07,65.46Z"/><path id="Path-32" class="cls-16" d="M104,62.69s4.23,1.14,6,3.86a47,47,0,0,1,2.83,5.85L116,67.54s3.8,1.17,5.3,3c0,0-4.5,9.84-8.43,10.68s-8.09-5.77-8.09-5.77-.86,2.76-.69-.19"/><path id="Path-33" class="cls-20" d="M106.68,73.21A8.79,8.79,0,0,1,104,69.39c-.5-1.73.13-3.25.72-4.86a15.07,15.07,0,0,0,1.11-5,49.1,49.1,0,0,0-.26-5,.81.81,0,0,1,0-.22c-.56-1.9-1.72-3.51-4-3.7-5.91-.5-6.25,6-6.2,8.71s.32,4.46-1.64,5.57-3.38,4-1.5,6.4.19,1.49-1.06,3.59-.92,4.71,1.64,5.66,14.46-.83,15.55-1.93a2.27,2.27,0,0,0,.56-1.61,6.19,6.19,0,0,0-2.23-3.75Z"/><path id="Shape-7" class="cls-10" d="M112.49,19.21a9.41,9.41,0,0,1,1.67,4.89,3.14,3.14,0,0,1-.54,2.28,1.34,1.34,0,0,1-1.6.28,2.61,2.61,0,0,1-.86-.58,3.09,3.09,0,0,1-.55-.7l-.16-.3a1.07,1.07,0,0,1-.15.22,1.2,1.2,0,0,1-.53.22,1.65,1.65,0,0,1-1-.11,3.64,3.64,0,0,1-1.69-1.51,4.91,4.91,0,0,1-.74-2.44,2.36,2.36,0,0,1,.6-1.93,1.39,1.39,0,0,1,1.56-.25,2.67,2.67,0,0,1,.7.44,2.47,2.47,0,0,1,.46.51l.12.21v-.58l1.29.5.12,3.62a1.47,1.47,0,0,0,.24.73,1.31,1.31,0,0,0,.52.47c.62.24.91-.3.87-1.61a7,7,0,0,0-1.25-3.64,5.89,5.89,0,0,0-2.85-2.43,2.41,2.41,0,0,0-2.67.34,3.69,3.69,0,0,0-1,3,7.82,7.82,0,0,0,1.29,3.85,5.93,5.93,0,0,0,2.75,2.58,3.32,3.32,0,0,0,1.28.25,1.73,1.73,0,0,0,.84-.16l.26-.14.77,1.45-.12.09a2.64,2.64,0,0,1-.38.18,2.32,2.32,0,0,1-.65.18,3,3,0,0,1-.85,0,4.6,4.6,0,0,1-1.09-.28A7.07,7.07,0,0,1,106.58,27a11.33,11.33,0,0,1-2-3.11,9.84,9.84,0,0,1-.82-3.46,5.59,5.59,0,0,1,.59-2.9,3.24,3.24,0,0,1,1.83-1.6,3.46,3.46,0,0,1,2.53.13,8.1,8.1,0,0,1,3.77,3.22Zm-2.83,4.58a1.3,1.3,0,0,0,.26-1,2.48,2.48,0,0,0-.34-1.19,1.61,1.61,0,0,0-.78-.7.68.68,0,0,0-.79.1,1.16,1.16,0,0,0-.28.93,2.54,2.54,0,0,0,.36,1.2,1.81,1.81,0,0,0,.82.73.65.65,0,0,0,.75-.11"/><path id="Shape-8" class="cls-10" d="M188.44,88.85a9.32,9.32,0,0,1,1.67,4.89,3.14,3.14,0,0,1-.54,2.28,1.34,1.34,0,0,1-1.6.27,2.58,2.58,0,0,1-.86-.57,3.46,3.46,0,0,1-.55-.71l-.16-.3a1.07,1.07,0,0,1-.15.22,1.1,1.1,0,0,1-.53.23,1.63,1.63,0,0,1-.95-.11,3.64,3.64,0,0,1-1.68-1.52,4.73,4.73,0,0,1-.75-2.44,2.38,2.38,0,0,1,.59-1.93,1.36,1.36,0,0,1,1.56-.25,2.13,2.13,0,0,1,.7.44,2.52,2.52,0,0,1,.47.51l.12.21V89.5l1.28.49.13,3.62a1.46,1.46,0,0,0,.23.72,1.2,1.2,0,0,0,.53.47c.65.25.91-.29.87-1.61a6.85,6.85,0,0,0-1.24-3.63,6.06,6.06,0,0,0-2.84-2.43,2.4,2.4,0,0,0-2.68.33,3.69,3.69,0,0,0-1,3,7.69,7.69,0,0,0,1.29,3.85,6,6,0,0,0,2.78,2.49,3.33,3.33,0,0,0,1.28.26,2,2,0,0,0,.84-.15l.26-.15.77,1.45-.12.09a2.64,2.64,0,0,1-.38.18,2.32,2.32,0,0,1-.65.18,3.1,3.1,0,0,1-.86,0,4.52,4.52,0,0,1-1.08-.28,7.07,7.07,0,0,1-2.57-1.89,11.15,11.15,0,0,1-2-3.12,9.37,9.37,0,0,1-.82-3.45,5.56,5.56,0,0,1,.59-2.89,3.27,3.27,0,0,1,1.83-1.62,3.59,3.59,0,0,1,2.54.13,8.15,8.15,0,0,1,3.68,3.31Zm-2.84,4.57a1.26,1.26,0,0,0,.27-1,2.38,2.38,0,0,0-.34-1.19,1.56,1.56,0,0,0-.77-.71.7.7,0,0,0-.8.1,1.2,1.2,0,0,0-.29.93,2.52,2.52,0,0,0,.37,1.19,1.78,1.78,0,0,0,.82.74.65.65,0,0,0,.74-.11"/><path id="Path-34" class="cls-21" d="M60.25,116.27,38.48,103.88,16.71,116.29s12.11,7.57,22.95,13.92C46.55,125.35,52.66,119.79,60.25,116.27Z"/></g></g><path id="path-6-2" class="cls-22" d="M20.93,81.47v26.94l21,12,23.7-14V79.48"/><path id="path-6-3" class="cls-23" d="M20.93,81.47v26.94l21,12,23.7-14V79.48"/><path id="Path-35" class="cls-24" d="M41.91,93.49v26.93l23.7-14V79.48Z"/><path id="Path-36" class="cls-10" d="M20.93,81.47,45.28,67.59,65.61,79.48l-23.7,14Z"/><path id="Shape-9" class="cls-18" d="M42.47,73.78a12.91,12.91,0,0,1,7.1,1.56c1.25.73,1.93,1.49,2,2.29a2.09,2.09,0,0,1-1.28,2.07,4.69,4.69,0,0,1-1.49.59,5.37,5.37,0,0,1-1.33.14H47a1.89,1.89,0,0,1,.09.34,1.64,1.64,0,0,1-.26.77,3,3,0,0,1-1,1,6.34,6.34,0,0,1-3.35.88A6.61,6.61,0,0,1,39,82.54a2.68,2.68,0,0,1-1.55-2.08,2.25,2.25,0,0,1,1.28-2A4.33,4.33,0,0,1,39.87,78a4.27,4.27,0,0,1,1-.17h.35l-.64-.39,1.8-1.12,4.17,2.46a2.19,2.19,0,0,0,2.08,0c.88-.56.56-1.28-1-2.18a9.61,9.61,0,0,0-5.28-1.17A10.78,10.78,0,0,0,36.91,77c-1.51,1-2.26,2.07-2.25,3.38s.8,2.43,2.36,3.34A10.61,10.61,0,0,0,42.59,85a10.44,10.44,0,0,0,5.51-1.46,6.28,6.28,0,0,0,1.53-1.28,2.94,2.94,0,0,0,.64-1.09l.09-.41,2.38.14v.21a4.23,4.23,0,0,1-.17.58,4.83,4.83,0,0,1-.41.86,5.77,5.77,0,0,1-.85,1,8.48,8.48,0,0,1-1.38,1.07,13.11,13.11,0,0,1-4.66,1.68,17.72,17.72,0,0,1-5.44.09,12.46,12.46,0,0,1-4.67-1.52,6.12,6.12,0,0,1-2.65-2.79,4.09,4.09,0,0,1,0-3.29,6.23,6.23,0,0,1,2.63-2.88,14.41,14.41,0,0,1,7.33-2.14Zm2.33,6.63a1.32,1.32,0,0,0-.8-1A3.2,3.2,0,0,0,42.34,79a2.83,2.83,0,0,0-1.55.4,1.14,1.14,0,0,0-.64,1,1.3,1.3,0,0,0,.75,1,3.39,3.39,0,0,0,1.7.43,3.08,3.08,0,0,0,1.63-.43,1,1,0,0,0,.6-1"/></g></g></g></g></svg>